<?xml version="1.0" encoding="utf-8"?>
<svg viewBox="0 0 67.953 67.8" style="enable-background:new 0 0 287.5 67.8" xmlns="http://www.w3.org/2000/svg">
    <g id="swoosh-group" transform="matrix(1, 0, 0, 1, -1.7763568394002505e-15, 0)">
        <defs>
            <path id="the_path" d="M41.7 46.1c10.8-7 19-15.6 20.5-21.7 5.1 12.3.4 27.2-11.7 35.1-12.2 7.9-27.7 6-36.9-3.7.7.1 1.5.2 2.3.2 6.3 0 16-3.5 25.8-9.9m18.1-26.2c.1.1.2.2.3.4.1.1.1.2.1.3 0 0 0 .1.1.1.4.8.5 1.7.2 2.9-1.2 5.6-9.2 14.1-19.8 20.9C26.2 53.8 14 56 10.9 52.6c4.3 1.9 14.4-1.1 24.3-7.5 11.6-7.5 18.8-17 16.1-21.3-1.7-2.6-6.7-2.5-13-.4 10-4.8 18.7-6.4 21.5-3.5M7.6 47.2c-.4-.8-.4-1.7-.2-2.8 1.2-5.6 9.2-14.1 19.8-20.9 14.5-9.4 26.7-11.5 29.7-8.2-4.3-1.9-14.4 1.1-24.3 7.5-11.6 7.5-18.7 17-16 21.2 1.7 2.6 6.7 2.5 13 .4-10 4.9-18.8 6.5-21.5 3.6-.1-.1-.2-.2-.3-.4-.1-.1-.1-.2-.1-.3-.1 0-.1-.1-.1-.1m9.8-38.9C29.6.4 45.1 2.3 54.3 12c-6.1-1.1-17 2.5-28.2 9.7-10.8 7-18.9 15.6-20.5 21.7C.6 31 5.2 16.2 17.4 8.3M33.9 0C15.2 0 0 15.2 0 33.9s15.2 33.9 33.9 33.9 33.9-15.2 33.9-33.9S52.6 0 33.9 0z"/>
        </defs>
        <clipPath id="the_clip_path">
            <path d="M41.7 46.1c10.8-7 19-15.6 20.5-21.7 5.1 12.3.4 27.2-11.7 35.1-12.2 7.9-27.7 6-36.9-3.7.7.1 1.5.2 2.3.2 6.3 0 16-3.5 25.8-9.9m18.1-26.2c.1.1.2.2.3.4.1.1.1.2.1.3 0 0 0 .1.1.1.4.8.5 1.7.2 2.9-1.2 5.6-9.2 14.1-19.8 20.9C26.2 53.8 14 56 10.9 52.6c4.3 1.9 14.4-1.1 24.3-7.5 11.6-7.5 18.8-17 16.1-21.3-1.7-2.6-6.7-2.5-13-.4 10-4.8 18.7-6.4 21.5-3.5M7.6 47.2c-.4-.8-.4-1.7-.2-2.8 1.2-5.6 9.2-14.1 19.8-20.9 14.5-9.4 26.7-11.5 29.7-8.2-4.3-1.9-14.4 1.1-24.3 7.5-11.6 7.5-18.7 17-16 21.2 1.7 2.6 6.7 2.5 13 .4-10 4.9-18.8 6.5-21.5 3.6-.1-.1-.2-.2-.3-.4-.1-.1-.1-.2-.1-.3-.1 0-.1-.1-.1-.1m9.8-38.9C29.6.4 45.1 2.3 54.3 12c-6.1-1.1-17 2.5-28.2 9.7-10.8 7-18.9 15.6-20.5 21.7C.6 31 5.2 16.2 17.4 8.3M33.9 0C15.2 0 0 15.2 0 33.9s15.2 33.9 33.9 33.9 33.9-15.2 33.9-33.9S52.6 0 33.9 0z" style="overflow: visible;"/>
        </clipPath>
        <linearGradient id="the_gradient" x1="0" x2="1" y1="67.815" y2="67.815" gradientTransform="scale(67.815 -67.815) rotate(45 82.964 33.658)" gradientUnits="userSpaceOnUse">
            <stop offset="0" style="stop-color:#e64341"/>
            <stop offset="0.25" style="stop-color:#f6e734"/>
            <stop offset="0.5" style="stop-color:#fff"/>
            <stop offset="0.75" style="stop-color:#41bde9"/>
            <stop offset="1" style="stop-color:#2c3986"/>
        </linearGradient>
        <path style="clip-path:url(#the_clip_path);fill:url(#the_gradient)" d="m-33.9 33.9 67.8-67.8 67.8 67.8-67.8 67.8z"/>
    </g>
</svg>
